<?xml version="1.0" encoding="UTF-8"?>
<svg id="Layer_1" data-name="Layer 1" xmlns="http://www.w3.org/2000/svg" viewBox="0 0 1024 1024">
  <defs>
    <style>
      .cls-1 {
        fill: #fff;
      }
    </style>
  </defs>
  <path class="cls-1" d="M512,0C229.23,0,0,229.23,0,512s229.23,512,512,512,512-229.23,512-512S794.77,0,512,0ZM512,949.5c-241.62,0-437.5-195.88-437.5-437.5S270.38,74.5,512,74.5s437.5,195.88,437.5,437.5-195.88,437.5-437.5,437.5Z"/>
  <g>
    <rect class="cls-1" x="313.75" y="332.84" width="396.5" height="96.6" transform="translate(893.14 -130.86) rotate(90)"/>
    <polygon class="cls-1" points="769.38 564.83 512 841.11 507.32 836.1 443.7 767.81 254.62 564.83 322.92 491.53 512 694.49 701.08 491.52 769.38 564.83"/>
  </g>
</svg>